<svg width="1104" height="220" style="overflow: hidden;" aria-label="A chart."><defs id="defs"><clipPath id="_ABSTRACT_RENDERER_ID_21"><rect x="30" y="17" width="1068" height="186"></rect></clipPath></defs><g><rect x="30" y="17" width="1068" height="186" stroke="none" stroke-width="0" fill-opacity="0" fill="#ffffff"></rect><g clip-path="url(https://trends.google.com/trends/explore?date=2011-10-24%202022-11-24&amp;q=angularjs#_ABSTRACT_RENDERER_ID_21)"><g><rect x="30" y="156" width="1068" height="1" stroke="none" stroke-width="0" fill="#e0e0e0"></rect><rect x="30" y="110" width="1068" height="1" stroke="none" stroke-width="0" fill="#e0e0e0"></rect><rect x="30" y="63" width="1068" height="1" stroke="none" stroke-width="0" fill="#e0e0e0"></rect><rect x="30" y="17" width="1068" height="1" stroke="none" stroke-width="0" fill="#e0e0e0"></rect></g><g><rect x="30" y="202" width="1068" height="1" stroke="none" stroke-width="0" fill="#9e9e9e"></rect></g><g><path d="M34.51127819548872,202.51850185018503L42.53383458646617,202.51850185018503L50.55639097744361,202.51850185018503L58.578947368421055,202.51850185018503L66.6015037593985,202.51850185018503L74.62406015037594,200.66831683168317L82.64661654135338,200.66831683168317L90.66917293233084,198.8181318131813L98.69172932330828,198.8181318131813L106.71428571428572,196.96794679467948L114.73684210526316,195.11776177617762L122.7593984962406,195.11776177617762L130.78195488721803,193.26757675767576L138.8045112781955,191.41739173917392L146.82706766917295,187.71702170217023L154.84962406015038,182.16646664666467L162.87218045112783,178.46609660966095L170.89473684210526,174.76572657265726L178.91729323308272,169.2151715171517L186.93984962406014,165.514801480148L194.9624060150376,159.96424642464245L202.98496240601506,154.41369136913693L211.00751879699249,150.7133213321332L219.03007518796994,143.31258125812582L227.05263157894737,134.06165616561657L235.07518796992483,139.6122112211221L243.09774436090225,128.51110111011099L251.1203007518797,115.55980598059806L259.14285714285717,110.0092509250925L267.16541353383457,100.75832583258325L275.187969924812,98.9081408140814L283.2105263157895,89.65721572157214L291.23308270676694,78.55610561056106L299.2556390977444,73.00555055505552L307.2781954887218,65.6048104810481L315.30075187969925,54.503700370036995L323.3233082706767,60.05425542554255L331.34586466165416,60.05425542554255L339.3684210526316,60.05425542554255L347.390977443609,54.503700370036995L355.4135338345865,43.402590259025914L363.43609022556393,41.55240524052405L371.4586466165414,47.10296029602961L379.4812030075188,37.85203520352036L387.50375939849624,17.5L395.5263157894737,37.85203520352036L403.54887218045116,34.151665166516665L411.5714285714286,34.151665166516665L419.593984962406,45.252775277527746L427.61654135338347,37.85203520352036L435.6390977443609,50.8033303330333L443.6616541353384,24.900740074007416L451.68421052631584,28.60111011101111L459.70676691729324,37.85203520352036L467.7293233082707,32.301480148014804L475.75187969924815,19.35018501850186L483.7744360902256,39.70222022202222L491.796992481203,41.55240524052405L499.81954887218046,45.252775277527746L507.8421052631579,54.503700370036995L515.8646616541354,50.8033303330333L523.8872180451128,61.90444044404441L531.9097744360902,58.20407040704072L539.9323308270677,52.65351535153516L547.9548872180451,37.85203520352036L555.9774436090225,54.503700370036995L564,63.75462546254627L572.0225563909775,69.3051805180518L580.0451127819549,71.15536553655366L588.0676691729324,74.85573557355737L596.0902255639098,84.1066606660666L604.1127819548873,87.8070307030703L612.1353383458647,84.1066606660666L620.1578947368421,104.45869586958695L628.1804511278195,102.6085108510851L636.203007518797,97.05795579557955L644.2255639097745,102.6085108510851L652.2481203007519,110.0092509250925L660.2706766917294,110.0092509250925L668.2932330827068,115.55980598059806L676.3157894736843,119.26017601760175L684.3383458646617,126.66091609160915L692.3609022556391,126.66091609160915L700.3834586466165,130.36128612861285L708.406015037594,135.9118411841184L716.4285714285714,147.0129512951295L724.4511278195489,141.46239623962396L732.4736842105264,139.6122112211221L740.4962406015038,145.16276627662768L748.5187969924813,147.0129512951295L756.5413533834587,147.0129512951295L764.5639097744361,150.7133213321332L772.5864661654135,147.0129512951295L780.609022556391,156.26387638763876L788.6315789473684,156.26387638763876L796.6541353383459,158.11406140614062L804.6766917293234,161.81443144314431L812.6992481203008,169.2151715171517L820.7218045112783,165.514801480148L828.7443609022557,163.66461646164618L836.7669172932332,171.06535653565356L844.7894736842105,172.91554155415542L852.812030075188,176.61591159115912L860.8345864661654,174.76572657265726L868.8571428571429,176.61591159115912L876.8796992481203,178.46609660966095L884.9022556390978,176.61591159115912L892.9248120300753,182.16646664666467L900.9473684210527,184.0166516651665L908.9699248120302,185.86683668366837L916.9924812030075,185.86683668366837L925.015037593985,182.16646664666467L933.0375939849624,185.86683668366837L941.0601503759399,185.86683668366837L949.0827067669173,187.71702170217023L957.1052631578948,185.86683668366837L965.1278195488723,185.86683668366837L973.1503759398497,187.71702170217023L981.1729323308272,185.86683668366837L989.1954887218045,187.71702170217023L997.218045112782,187.71702170217023L1005.2406015037594,187.71702170217023L1013.2631578947369,185.86683668366837L1021.2857142857143,185.86683668366837L1029.3082706766918,185.86683668366837L1037.3308270676694,185.86683668366837L1045.3533834586467,185.86683668366837L1053.375939849624,187.71702170217023L1061.3984962406016,185.86683668366837L1069.421052631579,187.71702170217023L1077.4436090225565,187.71702170217023L1085.4661654135339,189.56720672067206L1093.4887218045114,189.56720672067206" stroke="#2196f3" stroke-width="4" fill-opacity="1" fill="none"></path></g><g><rect x="435.6390977443609" y="17" width="1" height="186" stroke="none" stroke-width="0" fill="#d3d3d3"></rect><rect x="1013.2631578947369" y="17" width="1" height="186" stroke="none" stroke-width="0" fill="#d3d3d3"></rect></g></g><g></g><g><g><text text-anchor="middle" x="34.51127819548872" y="215.7" font-family="Roboto, Arial, sans-serif" font-size="12" stroke="none" stroke-width="0" fill="#9e9e9e">‪Nov 1, 2011‬</text></g><g><text text-anchor="middle" x="355.4135338345865" y="215.7" font-family="Roboto, Arial, sans-serif" font-size="12" stroke="none" stroke-width="0" fill="#9e9e9e">‪Mar 1, 2015‬</text></g><g><text text-anchor="middle" x="676.3157894736843" y="215.7" font-family="Roboto, Arial, sans-serif" font-size="12" stroke="none" stroke-width="0" fill="#9e9e9e">‪Jul 1, 2018‬</text></g><g><text text-anchor="middle" x="997.218045112782" y="215.7" font-family="Roboto, Arial, sans-serif" font-size="12" stroke="none" stroke-width="0" fill="#9e9e9e">‪Nov 1, 2021‬</text></g><g><text text-anchor="end" x="25" y="160.46387638763875" font-family="Roboto, Arial, sans-serif" font-size="12" stroke="none" stroke-width="0" fill="#bdbdbd">25</text></g><g><text text-anchor="end" x="25" y="114.2092509250925" font-family="Roboto, Arial, sans-serif" font-size="12" stroke="none" stroke-width="0" fill="#bdbdbd">50</text></g><g><text text-anchor="end" x="25" y="67.95462546254628" font-family="Roboto, Arial, sans-serif" font-size="12" stroke="none" stroke-width="0" fill="#bdbdbd">75</text></g><g><text text-anchor="end" x="25" y="21.7" font-family="Roboto, Arial, sans-serif" font-size="12" stroke="none" stroke-width="0" fill="#bdbdbd">100</text></g></g><g><g><g><text text-anchor="middle" x="449.5390977443609" y="110" font-family="Arial" font-size="14" transform="rotate(270 449.5390977443609 110)" stroke="none" stroke-width="0" fill="#9e9e9e">Note</text><path d="M437.6390977443609,125L437.6390977443609,95L451.6390977443609,95L451.6390977443609,125Z" stroke="none" stroke-width="0" fill-opacity="0" fill="#ffffff"></path></g></g><g><g><text text-anchor="middle" x="1027.163157894737" y="110" font-family="Arial" font-size="14" transform="rotate(270 1027.163157894737 110)" stroke="none" stroke-width="0" fill="#9e9e9e">Note</text><path d="M1015.2631578947369,125L1015.2631578947369,95L1029.2631578947369,95L1029.2631578947369,125Z" stroke="none" stroke-width="0" fill-opacity="0" fill="#ffffff"></path></g></g></g></g><g></g></svg>
